<svg xmlns="http://www.w3.org/2000/svg" width="35.838" height="21.199" viewBox="0 0 35.838 21.199">
  <g id="Group_1" data-name="Group 1" transform="translate(-12.561 -9.19)">
    <path id="Path_1" data-name="Path 1" d="M40.067,9.19c-1,.238-2,.547-3.016.7-2.879.434-5.76.893-8.657,1.168-2.1.2-4.227.125-6.343.16-.98.016-1.96,0-2.977,0L18.8,12.3l-3.824.607L16.69,25.281l-4.129-.214V9.19Z" transform="translate(0)" fill="#3d98d1" fill-rule="evenodd"/>
    <path id="Path_2" data-name="Path 2" d="M39.706,36.046l-2.17-15.733,29.039-4.185c.163,1.046.327,2.029.467,3.017.565,3.975,1.111,7.953,1.694,11.926.1.7-.084.975-.808,1.072q-8.26,1.1-16.511,2.272c-3.707.518-7.412,1.054-11.118,1.58C40.154,36.015,40.006,36.021,39.706,36.046ZM66.539,30.3a3.326,3.326,0,0,0,.021-.529c-.5-3.64-1-7.281-1.544-10.915a.757.757,0,0,0-.617-.4c-2.282.275-4.559.591-6.837.9-4.253.584-8.5,1.184-12.761,1.745-.632.083-.708.331-.624.9.514,3.462,1.017,6.925,1.459,10.4.088.692.321.787.932.7C53.193,32.165,59.82,31.243,66.539,30.3Z" transform="translate(-20.364 -5.657)" fill="#3d98d1" fill-rule="evenodd"/>
    <path id="Path_3" data-name="Path 3" d="M149.135,46.9a3.207,3.207,0,0,1-.108,6.414,3.235,3.235,0,0,1-3.185-3.177C145.837,48.581,147.432,46.642,149.135,46.9Z" transform="translate(-108.673 -30.732)" fill="#3d98d1" fill-rule="evenodd"/>
    <path id="Path_4" data-name="Path 4" d="M84.8,49.217l-.345-1.965,8.923-1.206c.095.752.159,1.256.239,1.892Z" transform="translate(-58.619 -30.051)" fill="#3d98d1" fill-rule="evenodd"/>
    <path id="Path_5" data-name="Path 5" d="M87.629,66.4a3.614,3.614,0,0,1-.167-.557c-.186-1.513-.039-1.4,1.063-1.513,2.284-.229,4.558-.6,6.818-1,1.157-.209.84.626,1.01,1.16.21.661-.138.758-.694.83-2.431.311-4.857.669-7.285,1.007C88.139,66.36,87.9,66.376,87.629,66.4Z" transform="translate(-61.017 -44.118)" fill="#3d98d1" fill-rule="evenodd"/>
    <path id="Path_6" data-name="Path 6" d="M89.565,85.35l-.274-1.9,3.8-.561c.334-.049.668-.1,1-.146,1.763-.249,1.824-.188,1.65,1.733Z" transform="translate(-62.563 -59.886)" fill="#3d98d1" fill-rule="evenodd"/>
  </g>
</svg>
